<?xml version="1.0" encoding="iso-8859-1"?>
<!-- Generator: Adobe Illustrator 18.1.1, SVG Export Plug-In . SVG Version: 6.00 Build 0)  -->
<svg xmlns="http://www.w3.org/2000/svg" xmlns:xlink="http://www.w3.org/1999/xlink" version="1.1" id="Capa_1" x="0px" y="0px" viewBox="0 0 478.204 478.204" style="enable-background:new 0 0 478.204 478.204;" xml:space="preserve" width="512px" height="512px">
<g>
	<path d="M293.978,58.115v0.26h-8.543c-19.468,0-36.522,10.348-46.089,25.8   c-9.559-15.444-26.605-25.8-46.081-25.8h-9.039v-0.26H0v322.948h184.226v-0.26h9.039c18.647,0,34.758,13.916,37.489,32.344   c0.585,3.983,4.007,6.942,8.031,6.942c0.195,0,0.366-0.081,0.545-0.098c0.187,0.016,0.374,0.098,0.553,0.098   c4.032,0,7.462-2.934,8.047-6.942c2.731-18.452,18.842-32.344,37.481-32.344h8.559v0.26h184.234V58.115H293.978z M231.217,380.218   c-9.876-9.722-23.37-15.68-37.952-15.68h-53.413v0.26H16.257V74.364h123.595v0.26h53.413c20.931,0,37.952,17.029,37.952,37.952   C231.217,112.577,231.217,380.218,231.217,380.218z M461.947,364.806H359.324v-0.26h-73.889c-14.583,0-28.084,5.95-37.96,15.68   V112.585c0-20.923,17.037-37.952,37.96-37.952h73.889v-0.26h102.623V364.806z" fill="#006DF0"/>
</g>
<g>
</g>
<g>
</g>
<g>
</g>
<g>
</g>
<g>
</g>
<g>
</g>
<g>
</g>
<g>
</g>
<g>
</g>
<g>
</g>
<g>
</g>
<g>
</g>
<g>
</g>
<g>
</g>
<g>
</g>
</svg>
